# xmcd
#
# Track frame offsets:
#	150
#	13741
#	32449
#	47242
#	69798
#	84273
#	97937
#	116673
#	131375
#	154116
#
# Disc length: 2245 seconds
#
# Revision: 0
# Processed by: cddbd v1.5.2PL0 Copyright (c) Steve Scherf et al.
# Submitted via: dBpowerAMP V4.0
#
DISCID=6d08c30a
DTITLE=Willie Revillame - Namamasko Po
DYEAR=2006
DGENRE=OPM
TTITLE0=Namamasko Po
TTITLE1=Boomtarat Tarat (Pasko Na)
TTITLE2=Araw Araw Ay Pasko
TTITLE3=Unang Pasko
TTITLE4=Wowowillie Christmas
TTITLE5=Namamasko Po (Minus One)
TTITLE6=Boomtarat Tarat (Pasko Na) (Minus One)
TTITLE7=Araw Araw Ay Pasko (Minus One)
TTITLE8=Unang Pasko (Minus One)
TTITLE9=Wowowillie Christmas (Minus One)
EXTD=One of the albums here in the philippines
EXTT0=
EXTT1=
EXTT2=
EXTT3=
EXTT4=
EXTT5=
EXTT6=
EXTT7=
EXTT8=
EXTT9=
PLAYORDER=
